<?xml version="1.0" encoding="utf-8"?>
<!-- Generator: Adobe Illustrator 24.0.2, SVG Export Plug-In . SVG Version: 6.00 Build 0)  -->
<svg version="1.1" id="Слой_1" xmlns="http://www.w3.org/2000/svg" xmlns:xlink="http://www.w3.org/1999/xlink" x="0px" y="0px"
	 viewBox="0 0 1000 1000" style="enable-background:new 0 0 1000 1000;" xml:space="preserve">
<style type="text/css">
	.st0{fill:#a3a3a3;}
</style>
<path class="st0" d="M650.98,429.94C804.66,226.34,771.82,93.68,771.82,93.68C660.17-23.22,436.87,8.3,436.87,8.3
	C605,131.77,650.98,429.94,650.98,429.94z"/>
<path class="st0" d="M540.86,339.36C477.2,92.35,352.93,35.46,352.93,35.46C191.94,50.07,77.6,244.45,77.6,244.45
	C278.89,189.73,540.86,339.36,540.86,339.36z"/>
<path class="st0" d="M401.43,369.16C168.48,265.21,46.6,327.05,46.6,327.05c-88.79,135.08-7.84,345.57-7.84,345.57
	C121.25,481.02,401.43,369.16,401.43,369.16z"/>
<path class="st0" d="M84.11,748.3c50.45,153.58,265.56,221.26,265.56,221.26c-98.6-183.82-11.73-472.74-11.73-472.74
	C111.59,614.42,84.11,748.3,84.11,748.3z"/>
<path class="st0" d="M398.34,625.98c-48.88,250.36,38.79,355.2,38.79,355.2c151.6,56.13,338.48-70.09,338.48-70.09
	C570.37,873.82,398.34,625.98,398.34,625.98z"/>
<path class="st0" d="M537.02,659.12c165.51,194.1,302.13,190.76,302.13,190.76C977.45,766.18,995,541.35,995,541.35
	C838.07,678.77,537.02,659.12,537.02,659.12z"/>
<path class="st0" d="M649.28,571.22c254.94-8.69,337.37-117.7,337.37-117.7c20.59-160.34-144.44-314.03-144.44-314.03
	C852.07,347.85,649.28,571.22,649.28,571.22z"/>
</svg>
